Jump_normalized_pl10_filtered_grf
version=1
nRows=10
nColumns=37
inDegrees=yes
endheader
time		1_ground_force_vx		1_ground_force_vy		1_ground_force_vz		1_ground_force_px		1_ground_force_py		1_ground_force_pz		1_ground_torque_x		1_ground_torque_y		1_ground_torque_z		2_ground_force_vx		2_ground_force_vy		2_ground_force_vz		2_ground_force_px		2_ground_force_py		2_ground_force_pz		2_ground_torque_x		2_ground_torque_y		2_ground_torque_z		3_ground_force_vx		3_ground_force_vy		3_ground_force_vz		3_ground_force_px		3_ground_force_py		3_ground_force_pz		3_ground_torque_x		3_ground_torque_y		3_ground_torque_z		4_ground_force_vx		4_ground_force_vy		4_ground_force_vz		4_ground_force_px		4_ground_force_py		4_ground_force_pz		4_ground_torque_x		4_ground_torque_y		4_ground_torque_z		
0.307000		0.000000		-0.000000		-0.000000		0.168179		0.000000		0.038553		-0.000000		-0.000000		0.000000		-0.000000		-0.000000		-0.000000		-0.185506		0.000000		0.247637		-0.000000		0.000000		-0.000000		-40.705205		271.235205		-156.190136		0.413111		1.262754		1.878988		1.766215		-11.769002		6.777151		57.678503		320.794649		-154.026672		-0.353551		1.255944		1.905469		2.844137		15.818438		-7.595081		
0.309197		0.000000		-0.000000		-0.000000		0.168179		0.000000		0.038553		-0.000000		-0.000000		0.000000		-0.000000		0.000000		-0.000000		-0.185506		0.000000		0.247637		-0.000000		0.000000		0.000000		-36.641128		257.107348		-151.643623		0.413075		1.262796		1.878959		1.584530		-11.118468		6.557741		52.895355		303.538363		-150.161599		-0.353504		1.255958		1.905400		2.594754		14.889882		-7.366068		
0.311394		-0.000000		-0.000000		0.000000		0.168179		0.000000		0.038553		-0.000000		0.000000		0.000000		-0.000000		0.000000		-0.000000		-0.185506		0.000000		0.247637		0.000000		0.000000		0.000000		-32.428128		242.287607		-146.193890		0.413040		1.262840		1.878922		1.398124		-10.446103		6.303069		48.085050		285.454454		-145.241996		-0.353457		1.255971		1.905319		2.345451		13.923625		-7.084466		
0.313591		-0.000000		0.000000		0.000000		0.168179		0.000000		0.038553		0.000000		0.000000		-0.000000		-0.000000		0.000000		0.000000		-0.185506		0.000000		0.247637		0.000000		0.000000		0.000000		-28.115169		226.793506		-139.824859		0.413005		1.262886		1.878872		1.208940		-9.752004		6.012395		43.273603		266.575227		-139.220861		-0.353414		1.255986		1.905226		2.097831		12.923091		-6.749170		
0.315788		-0.000000		0.000000		0.000000		0.168179		0.000000		0.038553		0.000000		0.000000		-0.000000		-0.000000		0.000000		0.000000		-0.185506		0.000000		0.247637		0.000000		0.000000		0.000000		-23.765090		210.678358		-132.552292		0.412972		1.262933		1.878807		1.019464		-9.037561		5.686150		38.492845		246.968690		-132.095068		-0.353373		1.255999		1.905120		1.853713		11.893308		-6.361309		
0.317985		-0.000000		0.000000		0.000000		0.168179		0.000000		0.038553		0.000000		0.000000		-0.000000		-0.000000		0.000000		0.000000		-0.185506		0.000000		0.247637		0.000000		-0.000000		0.000000		-19.449681		194.033786		-124.430701		0.412942		1.262982		1.878727		0.832544		-8.305622		5.326259		33.779166		226.742325		-123.915668		-0.353334		1.256012		1.905000		1.615035		10.840900		-5.924598		
0.320182		-0.000000		0.000000		0.000000		0.168179		0.000000		0.038553		0.000000		0.000000		-0.000000		-0.000000		0.000000		0.000000		-0.185506		0.000000		0.247637		0.000000		-0.000000		0.000000		-15.248458		176.970301		-115.520312		0.412915		1.263030		1.878627		0.651396		-7.559936		4.934872		29.177207		206.022415		-114.747298		-0.353299		1.256025		1.904867		1.384125		9.773360		-5.443411		
0.322379		-0.000000		0.000000		0.000000		0.168179		0.000000		0.038553		0.000000		0.000000		-0.000000		0.000000		0.000000		0.000000		-0.185506		0.000000		0.247637		0.000000		-0.000000		0.000000		-11.241045		159.644520		-105.941864		0.412894		1.263076		1.878507		0.479240		-6.806087		4.516593		24.731413		184.989728		-104.736791		-0.353267		1.256038		1.904717		1.163138		8.700170		-4.925823		
0.324576		-0.000000		0.000000		0.000000		0.168179		0.000000		0.038553		0.000000		0.000000		-0.000000		0.000000		0.000000		0.000000		-0.185506		0.000000		0.247637		0.000000		-0.000000		0.000000		-7.506606		142.233543		-95.827886		0.412877		1.263121		1.878363		0.319337		-6.050698		4.076573		20.492157		163.851948		-94.052063		-0.353238		1.256050		1.904553		0.954494		7.631937		-4.380778		
0.326773		-0.000000		0.000000		0.000000		0.168179		0.000000		0.038553		0.000000		0.000000		-0.000000		0.000000		0.000000		0.000000		-0.185506		0.000000		0.247637		0.000000		-0.000000		0.000000		-4.117812		124.943848		-85.341548		0.412867		1.263162		1.878198		0.174735		-5.301743		3.621296		16.510141		142.856725		-82.906383		-0.353213		1.256062		1.904378		0.760559		6.580772		-3.819122		
